<svg width="96" height="110" viewBox="0 0 96 110" fill="none" xmlns="http://www.w3.org/2000/svg">
<path d="M54.8571 110C40.3081 110 26.355 104.205 16.0673 93.8909C5.77957 83.5764 4.62462e-07 69.5869 0 55C-4.62462e-07 40.4131 5.77957 26.4236 16.0673 16.1091C26.355 5.79463 40.3081 1.56495e-06 54.8571 0L54.8571 55V110Z" fill="#FF6A6A"/>
<path d="M54.8571 27.5C65.7689 27.5 76.2337 31.846 83.9495 39.5818C91.6653 47.3177 96 57.8098 96 68.75C96 79.6902 91.6653 90.1823 83.9495 97.9182C76.2338 105.654 65.7689 110 54.8571 110L54.8571 27.5Z" fill="#FF6A6A"/>
</svg>
